<svg xmlns="http://www.w3.org/2000/svg" viewBox="0 0 32 32" xmlns:xlink="http://www.w3.org/1999/xlink">
 <defs>
  <linearGradient id="a" y1="24" x1="8" y2="8" gradientUnits="userSpaceOnUse" x2="24">
   <stop stop-color="#e81877"/>
   <stop offset=".312" stop-color="#dd1d8c"/>
   <stop offset=".562" stop-color="#6d57b1"/>
   <stop offset=".75" stop-color="#2a78c1"/>
   <stop offset="1" stop-color="#018dcb"/>
  </linearGradient>
  <linearGradient id="b" y1="24" x1="8" y2="8" gradientUnits="userSpaceOnUse" x2="24" gradientTransform="matrix(1 0 0-1 384.57 547.8)">
   <stop stop-color="#e51561"/>
   <stop offset=".312" stop-color="#e4156c"/>
   <stop offset=".562" stop-color="#e71e2c"/>
   <stop offset=".75" stop-color="#e8301e"/>
   <stop offset="1" stop-color="#e6320e"/>
  </linearGradient>
  <linearGradient id="c" y1="24" x1="8" y2="8" gradientUnits="userSpaceOnUse" x2="24" gradientTransform="matrix(-1 0 0 1 432.57 499.8)">
   <stop stop-color="#bec900"/>
   <stop offset=".312" stop-color="#9ec80a"/>
   <stop offset=".562" stop-color="#71b93d"/>
   <stop offset=".75" stop-color="#35a48f"/>
   <stop offset="1" stop-color="#018fca"/>
  </linearGradient>
  <linearGradient id="d" y1="24" x1="8" y2="8" gradientUnits="userSpaceOnUse" x2="24" gradientTransform="matrix(-1 0 0-1 432.57 547.8)">
   <stop stop-color="#c1cc00"/>
   <stop offset=".312" stop-color="#dfcd00"/>
   <stop offset=".562" stop-color="#f0cc00"/>
   <stop offset=".75" stop-color="#fd8c08"/>
   <stop offset="1" stop-color="#f25c13"/>
  </linearGradient>
  <filter width="1.12" x="-.06" y="-.06" height="1.12" color-interpolation-filters="sRGB" id="e">
   <feGaussianBlur stdDeviation=".4"/>
  </filter>
  <clipPath id="f">
   <use xlink:href="#r"/>
  </clipPath>
  <clipPath id="g">
   <use xlink:href="#s"/>
  </clipPath>
  <clipPath id="h">
   <use xlink:href="#s"/>
  </clipPath>
  <clipPath id="i">
   <use xlink:href="#s"/>
  </clipPath>
  <clipPath id="j">
   <use xlink:href="#r"/>
  </clipPath>
  <clipPath id="k">
   <use xlink:href="#s"/>
  </clipPath>
  <clipPath id="l">
   <use xlink:href="#s"/>
  </clipPath>
  <clipPath id="m">
   <use xlink:href="#s"/>
  </clipPath>
  <clipPath id="n">
   <use xlink:href="#r"/>
  </clipPath>
  <clipPath id="o">
   <use xlink:href="#s"/>
  </clipPath>
  <clipPath id="p">
   <use xlink:href="#s"/>
  </clipPath>
  <clipPath id="q">
   <use xlink:href="#s"/>
  </clipPath>
  <rect width="32" x="8" y="8" rx="16" height="32" id="r"/>
  <rect width="32" x="392.57" y="507.8" rx="16" height="32" id="s"/>
  <path fill="url(#a)" id="t" d="m24 8c-8.864 0-16 7.136-16 16h16z"/>
  <path fill="url(#b)" id="u" d="m408.57 539.8c-8.864 0-16-7.136-16-16h16z"/>
  <path fill="url(#c)" id="v" d="m408.57 507.8c8.864 0 16 7.136 16 16h-16z"/>
  <path fill="url(#d)" id="w" d="m408.57 539.8c8.864 0 16-7.136 16-16h-16z"/>
 </defs>
 <g transform="matrix(1.8733 0 0 1.8733-4.606-1934.78)">
  <g transform="matrix(.38637.10353-.10353.38637-92.63 796.68)">
   <use xlink:href="#t" clip-path="url(#f)" transform="translate(384.57 499.8)"/>
   <use xlink:href="#u" clip-path="url(#g)"/>
   <use xlink:href="#v" clip-path="url(#h)"/>
   <use xlink:href="#w" clip-path="url(#i)"/>
  </g>
  <g opacity=".7" transform="matrix(.4 0 0 .4-152.43 831.84)">
   <use filter="url(#e)" xlink:href="#t" clip-path="url(#j)" transform="translate(384.57 499.8)"/>
   <use filter="url(#e)" xlink:href="#u" clip-path="url(#k)"/>
   <use filter="url(#e)" xlink:href="#w" clip-path="url(#l)"/>
   <use filter="url(#e)" xlink:href="#v" clip-path="url(#m)"/>
  </g>
  <use opacity=".35" xlink:href="#t" clip-path="url(#j)" transform="matrix(.28284.28284-.28284.28284 11 1027.79)"/>
  <use opacity=".35" xlink:href="#u" clip-path="url(#k)" transform="matrix(.28284.28284-.28284.28284 43.591 777.65)"/>
  <use opacity=".35" xlink:href="#w" clip-path="url(#l)" transform="matrix(.28284.28284-.28284.28284 43.591 777.65)"/>
  <use opacity=".35" xlink:href="#v" clip-path="url(#m)" transform="matrix(.28284.28284-.28284.28284 43.591 777.65)"/>
  <g transform="matrix(.10353.38637-.38637.10353 171.08 829.27)">
   <use opacity=".3" xlink:href="#t" clip-path="url(#n)" transform="translate(384.57 499.8)"/>
   <use opacity=".3" xlink:href="#u" clip-path="url(#o)"/>
   <use opacity=".3" xlink:href="#w" clip-path="url(#p)"/>
   <use opacity=".3" xlink:href="#v" clip-path="url(#q)"/>
  </g>
 </g>
</svg>
