<?xml version="1.0" ?><!DOCTYPE svg  PUBLIC '-//W3C//DTD SVG 1.1//EN'  'http://www.w3.org/Graphics/SVG/1.1/DTD/svg11.dtd'><svg height="512pt" version="1.1" viewBox="0,0,512,512" width="512pt" xmlns="http://www.w3.org/2000/svg" xmlns:inkpad="http://taptrix.com/inkpad/svg_extensions" xmlns:xlink="http://www.w3.org/1999/xlink"><defs/><g id="Layer" visibility="hidden"><path d="M-0.827082-1.30128L512.173-1.30128L512.173+510.699L-0.827082+510.699L-0.827082-1.30128Z" fill="#000000" opacity="0.0523256"/></g><g id="Layer_2"><path d="M13.7042+3.75982L497.642+3.75982C503.148+3.75982+507.612+8.22363+507.612+13.73L507.612+497.667C507.612+503.174+503.148+507.638+497.642+507.638L13.7042+507.638C8.19783+507.638+3.73402+503.174+3.73402+497.667L3.73402+13.73C3.73402+8.22363+8.19783+3.75982+13.7042+3.75982Z" fill="none" opacity="1" stroke="#000000" stroke-linejoin="round" stroke-width="5"/></g><g id="Layer_3"><path d="M13.7042+3.75983L497.642+3.75983C503.148+3.75983+507.612+8.22363+507.612+13.73L507.612+65.4155L3.73403+65.4155L3.73405+13.73C3.73405+8.22363+8.19786+3.75983+13.7042+3.75983Z" fill="none" opacity="1" stroke="#000000" stroke-linejoin="round" stroke-width="5"/></g><g id="Layer_4"><path d="M32.0587+34.5877C32.0587+23.1729+41.3122+13.9194+52.727+13.9194C64.1418+13.9194+73.3953+23.1729+73.3953+34.5877C73.3953+46.0025+64.1418+55.256+52.727+55.256C41.3122+55.256+32.0587+46.0025+32.0587+34.5877Z" fill="none" opacity="1" stroke="#000000" stroke-linejoin="round" stroke-width="5"/><path d="M93.3817+34.5877C93.3817+23.1729+102.635+13.9194+114.05+13.9194C125.465+13.9194+134.718+23.1729+134.718+34.5877C134.718+46.0025+125.465+55.256+114.05+55.256C102.635+55.256+93.3817+46.0025+93.3817+34.5877Z" fill="none" opacity="1" stroke="#000000" stroke-linejoin="round" stroke-width="5"/><path d="M154.211+34.5877C154.211+23.1729+163.464+13.9194+174.879+13.9194C186.294+13.9194+195.547+23.1729+195.547+34.5877C195.547+46.0025+186.294+55.256+174.879+55.256C163.464+55.256+154.211+46.0025+154.211+34.5877Z" fill="none" opacity="1" stroke="#000000" stroke-linejoin="round" stroke-width="5"/></g><g id="Layer_5"><g opacity="1"><path d="M96+448L240+304L96+448Z" fill="#ffffff" opacity="1" stroke="#000000" stroke-linecap="square" stroke-width="5"/><path d="M96+352L96+448" fill="#ffffff" opacity="1" stroke="#000000" stroke-linecap="square" stroke-width="5"/><path d="M192+448L96+448" fill="#ffffff" opacity="1" stroke="#000000" stroke-linecap="square" stroke-width="5"/></g><g opacity="1"><path d="M416+128L272+272L416+128Z" fill="#ffffff" opacity="1" stroke="#000000" stroke-linecap="square" stroke-width="5"/><path d="M416+224L416+128" fill="#ffffff" opacity="1" stroke="#000000" stroke-linecap="square" stroke-width="5"/><path d="M320+128L416+128" fill="#ffffff" opacity="1" stroke="#000000" stroke-linecap="square" stroke-width="5"/></g></g></svg>