<?xml version="1.0" ?><!DOCTYPE svg  PUBLIC '-//W3C//DTD SVG 1.1//EN'  'http://www.w3.org/Graphics/SVG/1.1/DTD/svg11.dtd'><svg enable-background="new 0 0 128 128" id="Слой_1" version="1.1" viewBox="0 0 128 128" xml:space="preserve" xmlns="http://www.w3.org/2000/svg" xmlns:xlink="http://www.w3.org/1999/xlink"><g><g><path d="M107,101.5H77c-0.553,0-1-0.447-1-1s0.447-1,1-1h30c0.552,0,1-0.448,1-1v-69c0-0.552-0.448-1-1-1H21    c-0.552,0-1,0.448-1,1v69c0,0.552,0.448,1,1,1h31c0.553,0,1,0.447,1,1s-0.447,1-1,1H21c-1.654,0-3-1.346-3-3v-69    c0-1.654,1.346-3,3-3h86c1.654,0,3,1.346,3,3v69C110,100.154,108.654,101.5,107,101.5z" fill="#323638"/></g><g><path d="M109,39.725H19c-0.276,0-0.5-0.224-0.5-0.5s0.224-0.5,0.5-0.5h90c0.276,0,0.5,0.224,0.5,0.5    S109.276,39.725,109,39.725z" fill="#323638"/></g><g><circle cx="24.692" cy="33.53" fill="#323638" r="1.902"/></g><g><circle cx="30.099" cy="33.53" fill="#323638" r="1.902"/></g><g><circle cx="35.504" cy="33.53" fill="#323638" r="1.902"/></g><g><g><g><path d="M64.5,107.583c-0.274,0-0.543-0.113-0.736-0.323l-13.333-14.5c-0.374-0.406-0.347-1.039,0.06-1.413      c0.407-0.373,1.039-0.348,1.413,0.06L63.5,104.019V69.417c0-0.553,0.447-1,1-1s1,0.447,1,1v37.166      c0,0.412-0.253,0.782-0.637,0.932C64.745,107.561,64.622,107.583,64.5,107.583z" fill="#323638"/></g><g><path d="M64.5,107.583c-0.24,0-0.481-0.086-0.673-0.26c-0.408-0.372-0.438-1.004-0.067-1.413l13.333-14.666      c0.372-0.408,1.006-0.437,1.413-0.067c0.408,0.372,0.438,1.004,0.067,1.413L65.24,107.256      C65.043,107.473,64.771,107.583,64.5,107.583z" fill="#323638"/></g></g></g></g></svg>